{"accessors" : [{"bufferView" : 0, "byteOffset" : 0, "componentType" : 5123, "count" : 6942, "type" : "SCALAR", "max" : [5854], "min" : [0]}, {"bufferView" : 1, "byteOffset" : 0, "componentType" : 5126, "count" : 5855, "type" : "VEC3", "max" : [0.022357583045959473, 0.019255341961979866, 0.08762440085411072], "min" : [-0.18968337774276733, -0.05776657164096832, -0.05828142166137695], "name" : "POSITION"}, {"bufferView" : 1, "byteOffset" : 12, "componentType" : 5126, "count" : 5855, "type" : "VEC3", "max" : [0.9626204371452332, 0.9951794147491455, 0.9999268054962158], "min" : [-0.99909508228302, -0.999891459941864, -0.9983355402946472], "name" : "NORMAL"}, {"bufferView" : 1, "byteOffset" : 24, "componentType" : 5126, "count" : 5855, "type" : "VEC2", "max" : [0.9981235265731812, 0.9966058731079102], "min" : [0.0020069140009582043, 0.01021420955657959], "name" : "TEXCOORD_0"}], "asset" : {"generator" : "Aspose.3D 23.9.0", "version" : "2.0"}, "buffers" : [{"uri" : "data:application/octet-stream;base64,", "byteLength" : 236036}], "bufferViews" : [{"buffer" : 0, "byteOffset" : 0, "byteLength" : 13884, "target" : 34963}, {"buffer" : 0, "byteOffset" : 13888, "byteLength" : 222144, "byteStride" : 32, "target" : 34962}], "materials" : [{"name" : "lambert2", "pbrMetallicRoughness" : {"baseColorFactor" : [0.5, 0.5, 0.5, 1], "metallicFactor" : 0, "roughnessFactor" : 0.5527864098548889}, "emissiveFactor" : [0, 0, 0], "alphaMode" : "OPAQUE", "doubleSided" : true}], "meshes" : [{"primitives" : [{"attributes" : {"POSITION" : 1, "NORMAL" : 2, "TEXCOORD_0" : 3}, "indices" : 0, "material" : 0, "mode" : 4}]}], "nodes" : [{"mesh" : 0, "name" : "r_handMeshNode"}, {"children" : [0], "matrix" : [0.009999999776482582, 0, 0, 0, 0, -1.3435885348189617E-09, 0.009999999434197101, 0, 0, -0.009999999434197101, -1.3435885348189617E-09, 0, 0, 0, 0, 1], "name" : "Armature"}], "scene" : 0, "scenes" : [{"nodes" : [1]}]}